<mxfile host="app.diagrams.net" modified="2023-07-20T03:52:11.947Z" agent="Mozilla/5.0 (Windows NT 10.0; Win64; x64; rv:109.0) Gecko/20100101 Firefox/115.0" etag="kEl502pBDQfn6H161J_y" version="21.6.3" type="google">
  <diagram name="Page-1" id="6LzCRagLbC5EqKCzNpLI">
    <mxGraphModel grid="1" page="1" gridSize="10" guides="1" tooltips="1" connect="1" arrows="1" fold="1" pageScale="1" pageWidth="850" pageHeight="1100" math="0" shadow="0">
      <root>
        <mxCell id="0" />
        <mxCell id="1" parent="0" />
        <mxCell id="6X_0xpyrdX8jrI-PU6AP-1" value="requests" style="edgeStyle=orthogonalEdgeStyle;rounded=0;orthogonalLoop=1;jettySize=auto;html=1;endArrow=block;endFill=1;" edge="1" parent="1" source="6X_0xpyrdX8jrI-PU6AP-4" target="6X_0xpyrdX8jrI-PU6AP-30">
          <mxGeometry relative="1" as="geometry">
            <mxPoint as="offset" />
            <Array as="points">
              <mxPoint x="-420" y="-730" />
              <mxPoint x="-420" y="-730" />
            </Array>
          </mxGeometry>
        </mxCell>
        <mxCell id="6X_0xpyrdX8jrI-PU6AP-2" style="edgeStyle=orthogonalEdgeStyle;rounded=0;orthogonalLoop=1;jettySize=auto;html=1;entryX=0.5;entryY=1;entryDx=0;entryDy=0;startArrow=classicThin;startFill=1;endArrow=classicThin;endFill=1;" edge="1" parent="1" source="6X_0xpyrdX8jrI-PU6AP-4" target="6X_0xpyrdX8jrI-PU6AP-130">
          <mxGeometry relative="1" as="geometry">
            <Array as="points">
              <mxPoint x="-420" y="-860" />
              <mxPoint x="-570" y="-860" />
            </Array>
          </mxGeometry>
        </mxCell>
        <mxCell id="6X_0xpyrdX8jrI-PU6AP-3" value="assisted-by" style="edgeLabel;html=1;align=center;verticalAlign=middle;resizable=0;points=[];" connectable="0" vertex="1" parent="6X_0xpyrdX8jrI-PU6AP-2">
          <mxGeometry x="0.0432" y="3" relative="1" as="geometry">
            <mxPoint x="38" y="-3" as="offset" />
          </mxGeometry>
        </mxCell>
        <mxCell id="6X_0xpyrdX8jrI-PU6AP-4" value="Customer" style="swimlane;fontStyle=0;childLayout=stackLayout;horizontal=1;startSize=26;fillColor=none;horizontalStack=0;resizeParent=1;resizeParentMax=0;resizeLast=0;collapsible=1;marginBottom=0;whiteSpace=wrap;html=1;" vertex="1" parent="1">
          <mxGeometry x="-480" y="-870" width="140" height="104" as="geometry">
            <mxRectangle x="350" y="350" width="90" height="30" as="alternateBounds" />
          </mxGeometry>
        </mxCell>
        <mxCell id="6X_0xpyrdX8jrI-PU6AP-5" value="number" style="text;strokeColor=none;fillColor=none;align=left;verticalAlign=top;spacingLeft=4;spacingRight=4;overflow=hidden;rotatable=0;points=[[0,0.5],[1,0.5]];portConstraint=eastwest;whiteSpace=wrap;html=1;" vertex="1" parent="6X_0xpyrdX8jrI-PU6AP-4">
          <mxGeometry y="26" width="140" height="26" as="geometry" />
        </mxCell>
        <mxCell id="6X_0xpyrdX8jrI-PU6AP-6" value="date" style="text;strokeColor=none;fillColor=none;align=left;verticalAlign=top;spacingLeft=4;spacingRight=4;overflow=hidden;rotatable=0;points=[[0,0.5],[1,0.5]];portConstraint=eastwest;whiteSpace=wrap;html=1;" vertex="1" parent="6X_0xpyrdX8jrI-PU6AP-4">
          <mxGeometry y="52" width="140" height="26" as="geometry" />
        </mxCell>
        <mxCell id="6X_0xpyrdX8jrI-PU6AP-7" value="license number" style="text;strokeColor=none;fillColor=none;align=left;verticalAlign=top;spacingLeft=4;spacingRight=4;overflow=hidden;rotatable=0;points=[[0,0.5],[1,0.5]];portConstraint=eastwest;whiteSpace=wrap;html=1;" vertex="1" parent="6X_0xpyrdX8jrI-PU6AP-4">
          <mxGeometry y="78" width="140" height="26" as="geometry" />
        </mxCell>
        <mxCell id="6X_0xpyrdX8jrI-PU6AP-8" value="CustomerDescription" style="swimlane;fontStyle=0;childLayout=stackLayout;horizontal=1;startSize=26;fillColor=none;horizontalStack=0;resizeParent=1;resizeParentMax=0;resizeLast=0;collapsible=1;marginBottom=0;whiteSpace=wrap;html=1;" vertex="1" parent="1">
          <mxGeometry x="-790" y="-860" width="140" height="140" as="geometry">
            <mxRectangle x="350" y="350" width="90" height="30" as="alternateBounds" />
          </mxGeometry>
        </mxCell>
        <mxCell id="6X_0xpyrdX8jrI-PU6AP-9" value="name" style="text;strokeColor=none;fillColor=none;align=left;verticalAlign=top;spacingLeft=4;spacingRight=4;overflow=hidden;rotatable=0;points=[[0,0.5],[1,0.5]];portConstraint=eastwest;whiteSpace=wrap;html=1;" vertex="1" parent="6X_0xpyrdX8jrI-PU6AP-8">
          <mxGeometry y="26" width="140" height="26" as="geometry" />
        </mxCell>
        <mxCell id="6X_0xpyrdX8jrI-PU6AP-10" value="address" style="text;strokeColor=none;fillColor=none;align=left;verticalAlign=top;spacingLeft=4;spacingRight=4;overflow=hidden;rotatable=0;points=[[0,0.5],[1,0.5]];portConstraint=eastwest;whiteSpace=wrap;html=1;" vertex="1" parent="6X_0xpyrdX8jrI-PU6AP-8">
          <mxGeometry y="52" width="140" height="26" as="geometry" />
        </mxCell>
        <mxCell id="6X_0xpyrdX8jrI-PU6AP-11" value="email" style="text;strokeColor=none;fillColor=none;align=left;verticalAlign=top;spacingLeft=4;spacingRight=4;overflow=hidden;rotatable=0;points=[[0,0.5],[1,0.5]];portConstraint=eastwest;whiteSpace=wrap;html=1;" vertex="1" parent="6X_0xpyrdX8jrI-PU6AP-8">
          <mxGeometry y="78" width="140" height="32" as="geometry" />
        </mxCell>
        <mxCell id="6X_0xpyrdX8jrI-PU6AP-12" value="phone number" style="text;strokeColor=none;fillColor=none;align=left;verticalAlign=top;spacingLeft=4;spacingRight=4;overflow=hidden;rotatable=0;points=[[0,0.5],[1,0.5]];portConstraint=eastwest;whiteSpace=wrap;html=1;" vertex="1" parent="6X_0xpyrdX8jrI-PU6AP-8">
          <mxGeometry y="110" width="140" height="30" as="geometry" />
        </mxCell>
        <mxCell id="6X_0xpyrdX8jrI-PU6AP-13" style="edgeStyle=orthogonalEdgeStyle;rounded=0;orthogonalLoop=1;jettySize=auto;html=1;entryX=0.5;entryY=0;entryDx=0;entryDy=0;endArrow=none;endFill=0;exitX=0.5;exitY=1;exitDx=0;exitDy=0;" edge="1" parent="1" source="6X_0xpyrdX8jrI-PU6AP-15" target="6X_0xpyrdX8jrI-PU6AP-19">
          <mxGeometry relative="1" as="geometry">
            <mxPoint x="-840.0000000000002" y="-461" as="sourcePoint" />
          </mxGeometry>
        </mxCell>
        <mxCell id="6X_0xpyrdX8jrI-PU6AP-14" value="describes" style="edgeLabel;html=1;align=center;verticalAlign=middle;resizable=0;points=[];" connectable="0" vertex="1" parent="6X_0xpyrdX8jrI-PU6AP-13">
          <mxGeometry x="0.0857" y="2" relative="1" as="geometry">
            <mxPoint as="offset" />
          </mxGeometry>
        </mxCell>
        <mxCell id="6X_0xpyrdX8jrI-PU6AP-15" value="Vehicle" style="swimlane;fontStyle=0;childLayout=stackLayout;horizontal=1;startSize=26;fillColor=none;horizontalStack=0;resizeParent=1;resizeParentMax=0;resizeLast=0;collapsible=1;marginBottom=0;whiteSpace=wrap;html=1;" vertex="1" parent="1">
          <mxGeometry x="-910" y="-631" width="140" height="104" as="geometry">
            <mxRectangle x="350" y="350" width="90" height="30" as="alternateBounds" />
          </mxGeometry>
        </mxCell>
        <mxCell id="6X_0xpyrdX8jrI-PU6AP-16" value="number" style="text;strokeColor=none;fillColor=none;align=left;verticalAlign=top;spacingLeft=4;spacingRight=4;overflow=hidden;rotatable=0;points=[[0,0.5],[1,0.5]];portConstraint=eastwest;whiteSpace=wrap;html=1;" vertex="1" parent="6X_0xpyrdX8jrI-PU6AP-15">
          <mxGeometry y="26" width="140" height="26" as="geometry" />
        </mxCell>
        <mxCell id="6X_0xpyrdX8jrI-PU6AP-17" value="color" style="text;strokeColor=none;fillColor=none;align=left;verticalAlign=top;spacingLeft=4;spacingRight=4;overflow=hidden;rotatable=0;points=[[0,0.5],[1,0.5]];portConstraint=eastwest;whiteSpace=wrap;html=1;" vertex="1" parent="6X_0xpyrdX8jrI-PU6AP-15">
          <mxGeometry y="52" width="140" height="26" as="geometry" />
        </mxCell>
        <mxCell id="6X_0xpyrdX8jrI-PU6AP-18" value="number of occupants" style="text;strokeColor=none;fillColor=none;align=left;verticalAlign=top;spacingLeft=4;spacingRight=4;overflow=hidden;rotatable=0;points=[[0,0.5],[1,0.5]];portConstraint=eastwest;whiteSpace=wrap;html=1;" vertex="1" parent="6X_0xpyrdX8jrI-PU6AP-15">
          <mxGeometry y="78" width="140" height="26" as="geometry" />
        </mxCell>
        <mxCell id="6X_0xpyrdX8jrI-PU6AP-19" value="VehicleDescription" style="swimlane;fontStyle=0;childLayout=stackLayout;horizontal=1;startSize=26;fillColor=none;horizontalStack=0;resizeParent=1;resizeParentMax=0;resizeLast=0;collapsible=1;marginBottom=0;whiteSpace=wrap;html=1;" vertex="1" parent="1">
          <mxGeometry x="-910" y="-398.91999999999996" width="140" height="142" as="geometry">
            <mxRectangle x="350" y="350" width="90" height="30" as="alternateBounds" />
          </mxGeometry>
        </mxCell>
        <mxCell id="6X_0xpyrdX8jrI-PU6AP-20" value="Make" style="text;strokeColor=none;fillColor=none;align=left;verticalAlign=top;spacingLeft=4;spacingRight=4;overflow=hidden;rotatable=0;points=[[0,0.5],[1,0.5]];portConstraint=eastwest;whiteSpace=wrap;html=1;" vertex="1" parent="6X_0xpyrdX8jrI-PU6AP-19">
          <mxGeometry y="26" width="140" height="26" as="geometry" />
        </mxCell>
        <mxCell id="6X_0xpyrdX8jrI-PU6AP-21" value="Model" style="text;strokeColor=none;fillColor=none;align=left;verticalAlign=top;spacingLeft=4;spacingRight=4;overflow=hidden;rotatable=0;points=[[0,0.5],[1,0.5]];portConstraint=eastwest;whiteSpace=wrap;html=1;" vertex="1" parent="6X_0xpyrdX8jrI-PU6AP-19">
          <mxGeometry y="52" width="140" height="26" as="geometry" />
        </mxCell>
        <mxCell id="6X_0xpyrdX8jrI-PU6AP-22" value="Year" style="text;strokeColor=none;fillColor=none;align=left;verticalAlign=top;spacingLeft=4;spacingRight=4;overflow=hidden;rotatable=0;points=[[0,0.5],[1,0.5]];portConstraint=eastwest;whiteSpace=wrap;html=1;" vertex="1" parent="6X_0xpyrdX8jrI-PU6AP-19">
          <mxGeometry y="78" width="140" height="32" as="geometry" />
        </mxCell>
        <mxCell id="6X_0xpyrdX8jrI-PU6AP-23" value="Mileage" style="text;strokeColor=none;fillColor=none;align=left;verticalAlign=top;spacingLeft=4;spacingRight=4;overflow=hidden;rotatable=0;points=[[0,0.5],[1,0.5]];portConstraint=eastwest;whiteSpace=wrap;html=1;" vertex="1" parent="6X_0xpyrdX8jrI-PU6AP-19">
          <mxGeometry y="110" width="140" height="32" as="geometry" />
        </mxCell>
        <mxCell id="6X_0xpyrdX8jrI-PU6AP-24" style="edgeStyle=orthogonalEdgeStyle;rounded=0;orthogonalLoop=1;jettySize=auto;html=1;entryX=0.5;entryY=0;entryDx=0;entryDy=0;endArrow=none;endFill=0;" edge="1" parent="1" source="6X_0xpyrdX8jrI-PU6AP-30" target="6X_0xpyrdX8jrI-PU6AP-102">
          <mxGeometry relative="1" as="geometry">
            <Array as="points">
              <mxPoint x="-470" y="-490" />
              <mxPoint x="-650" y="-490" />
            </Array>
          </mxGeometry>
        </mxCell>
        <mxCell id="6X_0xpyrdX8jrI-PU6AP-25" value="generates" style="edgeLabel;html=1;align=center;verticalAlign=middle;resizable=0;points=[];" connectable="0" vertex="1" parent="6X_0xpyrdX8jrI-PU6AP-24">
          <mxGeometry x="0.08" y="-1" relative="1" as="geometry">
            <mxPoint as="offset" />
          </mxGeometry>
        </mxCell>
        <mxCell id="6X_0xpyrdX8jrI-PU6AP-26" style="edgeStyle=orthogonalEdgeStyle;rounded=0;orthogonalLoop=1;jettySize=auto;html=1;entryX=0.5;entryY=0;entryDx=0;entryDy=0;endArrow=classicThin;endFill=1;" edge="1" parent="1" source="6X_0xpyrdX8jrI-PU6AP-30" target="6X_0xpyrdX8jrI-PU6AP-36">
          <mxGeometry relative="1" as="geometry">
            <Array as="points">
              <mxPoint x="-360" y="-480" />
              <mxPoint x="-320" y="-480" />
            </Array>
          </mxGeometry>
        </mxCell>
        <mxCell id="6X_0xpyrdX8jrI-PU6AP-27" value="paid-by" style="edgeLabel;html=1;align=center;verticalAlign=middle;resizable=0;points=[];" connectable="0" vertex="1" parent="6X_0xpyrdX8jrI-PU6AP-26">
          <mxGeometry x="-0.01" y="-3" relative="1" as="geometry">
            <mxPoint x="25" y="10" as="offset" />
          </mxGeometry>
        </mxCell>
        <mxCell id="6X_0xpyrdX8jrI-PU6AP-28" style="edgeStyle=orthogonalEdgeStyle;rounded=0;orthogonalLoop=1;jettySize=auto;html=1;entryX=0.5;entryY=0;entryDx=0;entryDy=0;endArrow=none;endFill=0;" edge="1" parent="1" source="6X_0xpyrdX8jrI-PU6AP-30" target="6X_0xpyrdX8jrI-PU6AP-77">
          <mxGeometry relative="1" as="geometry" />
        </mxCell>
        <mxCell id="6X_0xpyrdX8jrI-PU6AP-29" value="underwritten-by" style="edgeLabel;html=1;align=center;verticalAlign=middle;resizable=0;points=[];" connectable="0" vertex="1" parent="6X_0xpyrdX8jrI-PU6AP-28">
          <mxGeometry y="1" relative="1" as="geometry">
            <mxPoint x="31" y="-21" as="offset" />
          </mxGeometry>
        </mxCell>
        <mxCell id="6X_0xpyrdX8jrI-PU6AP-30" value="Reservation" style="swimlane;fontStyle=0;childLayout=stackLayout;horizontal=1;startSize=26;fillColor=none;horizontalStack=0;resizeParent=1;resizeParentMax=0;resizeLast=0;collapsible=1;marginBottom=0;whiteSpace=wrap;html=1;" vertex="1" parent="1">
          <mxGeometry x="-490" y="-631" width="140" height="104" as="geometry">
            <mxRectangle x="350" y="350" width="90" height="30" as="alternateBounds" />
          </mxGeometry>
        </mxCell>
        <mxCell id="6X_0xpyrdX8jrI-PU6AP-31" value="name" style="text;strokeColor=none;fillColor=none;align=left;verticalAlign=top;spacingLeft=4;spacingRight=4;overflow=hidden;rotatable=0;points=[[0,0.5],[1,0.5]];portConstraint=eastwest;whiteSpace=wrap;html=1;" vertex="1" parent="6X_0xpyrdX8jrI-PU6AP-30">
          <mxGeometry y="26" width="140" height="26" as="geometry" />
        </mxCell>
        <mxCell id="6X_0xpyrdX8jrI-PU6AP-32" value="date created" style="text;strokeColor=none;fillColor=none;align=left;verticalAlign=top;spacingLeft=4;spacingRight=4;overflow=hidden;rotatable=0;points=[[0,0.5],[1,0.5]];portConstraint=eastwest;whiteSpace=wrap;html=1;" vertex="1" parent="6X_0xpyrdX8jrI-PU6AP-30">
          <mxGeometry y="52" width="140" height="26" as="geometry" />
        </mxCell>
        <mxCell id="6X_0xpyrdX8jrI-PU6AP-33" value="date effective" style="text;strokeColor=none;fillColor=none;align=left;verticalAlign=top;spacingLeft=4;spacingRight=4;overflow=hidden;rotatable=0;points=[[0,0.5],[1,0.5]];portConstraint=eastwest;whiteSpace=wrap;html=1;" vertex="1" parent="6X_0xpyrdX8jrI-PU6AP-30">
          <mxGeometry y="78" width="140" height="26" as="geometry" />
        </mxCell>
        <mxCell id="6X_0xpyrdX8jrI-PU6AP-34" style="edgeStyle=orthogonalEdgeStyle;rounded=0;orthogonalLoop=1;jettySize=auto;html=1;entryX=0.5;entryY=0;entryDx=0;entryDy=0;endArrow=none;endFill=0;" edge="1" parent="1" source="6X_0xpyrdX8jrI-PU6AP-36" target="6X_0xpyrdX8jrI-PU6AP-115">
          <mxGeometry relative="1" as="geometry" />
        </mxCell>
        <mxCell id="6X_0xpyrdX8jrI-PU6AP-35" value="processed-by" style="edgeLabel;html=1;align=center;verticalAlign=middle;resizable=0;points=[];" connectable="0" vertex="1" parent="6X_0xpyrdX8jrI-PU6AP-34">
          <mxGeometry x="0.0833" y="1" relative="1" as="geometry">
            <mxPoint as="offset" />
          </mxGeometry>
        </mxCell>
        <mxCell id="6X_0xpyrdX8jrI-PU6AP-36" value="Invoice" style="swimlane;fontStyle=0;childLayout=stackLayout;horizontal=1;startSize=26;fillColor=none;horizontalStack=0;resizeParent=1;resizeParentMax=0;resizeLast=0;collapsible=1;marginBottom=0;whiteSpace=wrap;html=1;" vertex="1" parent="1">
          <mxGeometry x="-390" y="-422" width="140" height="104" as="geometry">
            <mxRectangle x="350" y="350" width="90" height="30" as="alternateBounds" />
          </mxGeometry>
        </mxCell>
        <mxCell id="6X_0xpyrdX8jrI-PU6AP-37" value="number" style="text;strokeColor=none;fillColor=none;align=left;verticalAlign=top;spacingLeft=4;spacingRight=4;overflow=hidden;rotatable=0;points=[[0,0.5],[1,0.5]];portConstraint=eastwest;whiteSpace=wrap;html=1;" vertex="1" parent="6X_0xpyrdX8jrI-PU6AP-36">
          <mxGeometry y="26" width="140" height="26" as="geometry" />
        </mxCell>
        <mxCell id="6X_0xpyrdX8jrI-PU6AP-38" value="amount" style="text;strokeColor=none;fillColor=none;align=left;verticalAlign=top;spacingLeft=4;spacingRight=4;overflow=hidden;rotatable=0;points=[[0,0.5],[1,0.5]];portConstraint=eastwest;whiteSpace=wrap;html=1;" vertex="1" parent="6X_0xpyrdX8jrI-PU6AP-36">
          <mxGeometry y="52" width="140" height="26" as="geometry" />
        </mxCell>
        <mxCell id="6X_0xpyrdX8jrI-PU6AP-39" value="date" style="text;strokeColor=none;fillColor=none;align=left;verticalAlign=top;spacingLeft=4;spacingRight=4;overflow=hidden;rotatable=0;points=[[0,0.5],[1,0.5]];portConstraint=eastwest;whiteSpace=wrap;html=1;" vertex="1" parent="6X_0xpyrdX8jrI-PU6AP-36">
          <mxGeometry y="78" width="140" height="26" as="geometry" />
        </mxCell>
        <mxCell id="6X_0xpyrdX8jrI-PU6AP-40" style="edgeStyle=orthogonalEdgeStyle;rounded=0;orthogonalLoop=1;jettySize=auto;html=1;endArrow=none;endFill=0;" edge="1" parent="1" source="6X_0xpyrdX8jrI-PU6AP-42" target="6X_0xpyrdX8jrI-PU6AP-56">
          <mxGeometry relative="1" as="geometry" />
        </mxCell>
        <mxCell id="6X_0xpyrdX8jrI-PU6AP-41" value="describes" style="edgeLabel;html=1;align=center;verticalAlign=middle;resizable=0;points=[];" connectable="0" vertex="1" parent="6X_0xpyrdX8jrI-PU6AP-40">
          <mxGeometry x="-0.5" y="-1" relative="1" as="geometry">
            <mxPoint x="1" as="offset" />
          </mxGeometry>
        </mxCell>
        <mxCell id="6X_0xpyrdX8jrI-PU6AP-42" value="InsuranceCompany" style="swimlane;fontStyle=0;childLayout=stackLayout;horizontal=1;startSize=26;fillColor=none;horizontalStack=0;resizeParent=1;resizeParentMax=0;resizeLast=0;collapsible=1;marginBottom=0;whiteSpace=wrap;html=1;" vertex="1" parent="1">
          <mxGeometry x="-550" y="-187" width="140" height="104" as="geometry">
            <mxRectangle x="350" y="350" width="90" height="30" as="alternateBounds" />
          </mxGeometry>
        </mxCell>
        <mxCell id="6X_0xpyrdX8jrI-PU6AP-43" value="name" style="text;strokeColor=none;fillColor=none;align=left;verticalAlign=top;spacingLeft=4;spacingRight=4;overflow=hidden;rotatable=0;points=[[0,0.5],[1,0.5]];portConstraint=eastwest;whiteSpace=wrap;html=1;" vertex="1" parent="6X_0xpyrdX8jrI-PU6AP-42">
          <mxGeometry y="26" width="140" height="26" as="geometry" />
        </mxCell>
        <mxCell id="6X_0xpyrdX8jrI-PU6AP-44" value="contract start" style="text;strokeColor=none;fillColor=none;align=left;verticalAlign=top;spacingLeft=4;spacingRight=4;overflow=hidden;rotatable=0;points=[[0,0.5],[1,0.5]];portConstraint=eastwest;whiteSpace=wrap;html=1;" vertex="1" parent="6X_0xpyrdX8jrI-PU6AP-42">
          <mxGeometry y="52" width="140" height="26" as="geometry" />
        </mxCell>
        <mxCell id="6X_0xpyrdX8jrI-PU6AP-45" value="contract end" style="text;strokeColor=none;fillColor=none;align=left;verticalAlign=top;spacingLeft=4;spacingRight=4;overflow=hidden;rotatable=0;points=[[0,0.5],[1,0.5]];portConstraint=eastwest;whiteSpace=wrap;html=1;" vertex="1" parent="6X_0xpyrdX8jrI-PU6AP-42">
          <mxGeometry y="78" width="140" height="26" as="geometry" />
        </mxCell>
        <mxCell id="6X_0xpyrdX8jrI-PU6AP-46" value="Employee" style="swimlane;fontStyle=0;childLayout=stackLayout;horizontal=1;startSize=26;fillColor=none;horizontalStack=0;resizeParent=1;resizeParentMax=0;resizeLast=0;collapsible=1;marginBottom=0;whiteSpace=wrap;html=1;" vertex="1" parent="1">
          <mxGeometry x="-340" y="-1050" width="140" height="110" as="geometry">
            <mxRectangle x="350" y="350" width="90" height="30" as="alternateBounds" />
          </mxGeometry>
        </mxCell>
        <mxCell id="6X_0xpyrdX8jrI-PU6AP-47" value="type" style="text;strokeColor=none;fillColor=none;align=left;verticalAlign=top;spacingLeft=4;spacingRight=4;overflow=hidden;rotatable=0;points=[[0,0.5],[1,0.5]];portConstraint=eastwest;whiteSpace=wrap;html=1;" vertex="1" parent="6X_0xpyrdX8jrI-PU6AP-46">
          <mxGeometry y="26" width="140" height="26" as="geometry" />
        </mxCell>
        <mxCell id="6X_0xpyrdX8jrI-PU6AP-48" value="email" style="text;strokeColor=none;fillColor=none;align=left;verticalAlign=top;spacingLeft=4;spacingRight=4;overflow=hidden;rotatable=0;points=[[0,0.5],[1,0.5]];portConstraint=eastwest;whiteSpace=wrap;html=1;" vertex="1" parent="6X_0xpyrdX8jrI-PU6AP-46">
          <mxGeometry y="52" width="140" height="26" as="geometry" />
        </mxCell>
        <mxCell id="6X_0xpyrdX8jrI-PU6AP-49" value="phone number" style="text;strokeColor=none;fillColor=none;align=left;verticalAlign=top;spacingLeft=4;spacingRight=4;overflow=hidden;rotatable=0;points=[[0,0.5],[1,0.5]];portConstraint=eastwest;whiteSpace=wrap;html=1;" vertex="1" parent="6X_0xpyrdX8jrI-PU6AP-46">
          <mxGeometry y="78" width="140" height="32" as="geometry" />
        </mxCell>
        <mxCell id="6X_0xpyrdX8jrI-PU6AP-50" style="edgeStyle=orthogonalEdgeStyle;rounded=0;orthogonalLoop=1;jettySize=auto;html=1;entryX=0.5;entryY=0;entryDx=0;entryDy=0;endArrow=none;endFill=0;" edge="1" parent="1" source="6X_0xpyrdX8jrI-PU6AP-52" target="6X_0xpyrdX8jrI-PU6AP-81">
          <mxGeometry relative="1" as="geometry" />
        </mxCell>
        <mxCell id="6X_0xpyrdX8jrI-PU6AP-51" value="describes" style="edgeLabel;html=1;align=center;verticalAlign=middle;resizable=0;points=[];" connectable="0" vertex="1" parent="6X_0xpyrdX8jrI-PU6AP-50">
          <mxGeometry x="0.0444" y="1" relative="1" as="geometry">
            <mxPoint as="offset" />
          </mxGeometry>
        </mxCell>
        <mxCell id="6X_0xpyrdX8jrI-PU6AP-52" value="Contract" style="swimlane;fontStyle=0;childLayout=stackLayout;horizontal=1;startSize=26;fillColor=none;horizontalStack=0;resizeParent=1;resizeParentMax=0;resizeLast=0;collapsible=1;marginBottom=0;whiteSpace=wrap;html=1;" vertex="1" parent="1">
          <mxGeometry x="-190" y="-631" width="140" height="104" as="geometry">
            <mxRectangle x="350" y="350" width="90" height="30" as="alternateBounds" />
          </mxGeometry>
        </mxCell>
        <mxCell id="6X_0xpyrdX8jrI-PU6AP-53" value="contractId" style="text;strokeColor=none;fillColor=none;align=left;verticalAlign=top;spacingLeft=4;spacingRight=4;overflow=hidden;rotatable=0;points=[[0,0.5],[1,0.5]];portConstraint=eastwest;whiteSpace=wrap;html=1;" vertex="1" parent="6X_0xpyrdX8jrI-PU6AP-52">
          <mxGeometry y="26" width="140" height="26" as="geometry" />
        </mxCell>
        <mxCell id="6X_0xpyrdX8jrI-PU6AP-54" value="contract name" style="text;strokeColor=none;fillColor=none;align=left;verticalAlign=top;spacingLeft=4;spacingRight=4;overflow=hidden;rotatable=0;points=[[0,0.5],[1,0.5]];portConstraint=eastwest;whiteSpace=wrap;html=1;" vertex="1" parent="6X_0xpyrdX8jrI-PU6AP-52">
          <mxGeometry y="52" width="140" height="26" as="geometry" />
        </mxCell>
        <mxCell id="6X_0xpyrdX8jrI-PU6AP-55" value="customer name" style="text;strokeColor=none;fillColor=none;align=left;verticalAlign=top;spacingLeft=4;spacingRight=4;overflow=hidden;rotatable=0;points=[[0,0.5],[1,0.5]];portConstraint=eastwest;whiteSpace=wrap;html=1;" vertex="1" parent="6X_0xpyrdX8jrI-PU6AP-52">
          <mxGeometry y="78" width="140" height="26" as="geometry" />
        </mxCell>
        <mxCell id="6X_0xpyrdX8jrI-PU6AP-56" value="Vendor Description" style="swimlane;fontStyle=0;childLayout=stackLayout;horizontal=1;startSize=26;fillColor=none;horizontalStack=0;resizeParent=1;resizeParentMax=0;resizeLast=0;collapsible=1;marginBottom=0;whiteSpace=wrap;html=1;" vertex="1" parent="1">
          <mxGeometry x="-550" y="60" width="140" height="142" as="geometry">
            <mxRectangle x="350" y="350" width="90" height="30" as="alternateBounds" />
          </mxGeometry>
        </mxCell>
        <mxCell id="6X_0xpyrdX8jrI-PU6AP-57" value="type" style="text;strokeColor=none;fillColor=none;align=left;verticalAlign=top;spacingLeft=4;spacingRight=4;overflow=hidden;rotatable=0;points=[[0,0.5],[1,0.5]];portConstraint=eastwest;whiteSpace=wrap;html=1;" vertex="1" parent="6X_0xpyrdX8jrI-PU6AP-56">
          <mxGeometry y="26" width="140" height="26" as="geometry" />
        </mxCell>
        <mxCell id="6X_0xpyrdX8jrI-PU6AP-58" value="vendorId" style="text;strokeColor=none;fillColor=none;align=left;verticalAlign=top;spacingLeft=4;spacingRight=4;overflow=hidden;rotatable=0;points=[[0,0.5],[1,0.5]];portConstraint=eastwest;whiteSpace=wrap;html=1;" vertex="1" parent="6X_0xpyrdX8jrI-PU6AP-56">
          <mxGeometry y="52" width="140" height="26" as="geometry" />
        </mxCell>
        <mxCell id="6X_0xpyrdX8jrI-PU6AP-59" value="point of contact" style="text;strokeColor=none;fillColor=none;align=left;verticalAlign=top;spacingLeft=4;spacingRight=4;overflow=hidden;rotatable=0;points=[[0,0.5],[1,0.5]];portConstraint=eastwest;whiteSpace=wrap;html=1;" vertex="1" parent="6X_0xpyrdX8jrI-PU6AP-56">
          <mxGeometry y="78" width="140" height="32" as="geometry" />
        </mxCell>
        <mxCell id="6X_0xpyrdX8jrI-PU6AP-60" value="address" style="text;strokeColor=none;fillColor=none;align=left;verticalAlign=top;spacingLeft=4;spacingRight=4;overflow=hidden;rotatable=0;points=[[0,0.5],[1,0.5]];portConstraint=eastwest;whiteSpace=wrap;html=1;" vertex="1" parent="6X_0xpyrdX8jrI-PU6AP-56">
          <mxGeometry y="110" width="140" height="32" as="geometry" />
        </mxCell>
        <mxCell id="6X_0xpyrdX8jrI-PU6AP-61" style="edgeStyle=orthogonalEdgeStyle;rounded=0;orthogonalLoop=1;jettySize=auto;html=1;entryX=0.5;entryY=0;entryDx=0;entryDy=0;endArrow=classicThin;endFill=1;" edge="1" parent="1" source="6X_0xpyrdX8jrI-PU6AP-65" target="6X_0xpyrdX8jrI-PU6AP-52">
          <mxGeometry relative="1" as="geometry" />
        </mxCell>
        <mxCell id="6X_0xpyrdX8jrI-PU6AP-62" value="reviews" style="edgeLabel;html=1;align=center;verticalAlign=middle;resizable=0;points=[];" connectable="0" vertex="1" parent="6X_0xpyrdX8jrI-PU6AP-61">
          <mxGeometry x="-0.2696" y="-1" relative="1" as="geometry">
            <mxPoint x="1" y="13" as="offset" />
          </mxGeometry>
        </mxCell>
        <mxCell id="6X_0xpyrdX8jrI-PU6AP-63" style="edgeStyle=orthogonalEdgeStyle;rounded=0;orthogonalLoop=1;jettySize=auto;html=1;entryX=0.5;entryY=1;entryDx=0;entryDy=0;startArrow=none;startFill=0;endArrow=block;endFill=0;endSize=12;" edge="1" parent="1" source="6X_0xpyrdX8jrI-PU6AP-65" target="6X_0xpyrdX8jrI-PU6AP-46">
          <mxGeometry relative="1" as="geometry">
            <Array as="points">
              <mxPoint x="-270" y="-830" />
            </Array>
          </mxGeometry>
        </mxCell>
        <mxCell id="6X_0xpyrdX8jrI-PU6AP-64" value="inherits-from" style="edgeLabel;html=1;align=center;verticalAlign=middle;resizable=0;points=[];rotation=0;" connectable="0" vertex="1" parent="6X_0xpyrdX8jrI-PU6AP-63">
          <mxGeometry x="0.73" y="2" relative="1" as="geometry">
            <mxPoint x="2" y="54" as="offset" />
          </mxGeometry>
        </mxCell>
        <mxCell id="6X_0xpyrdX8jrI-PU6AP-65" value="Lawyer" style="swimlane;fontStyle=0;childLayout=stackLayout;horizontal=1;startSize=26;fillColor=none;horizontalStack=0;resizeParent=1;resizeParentMax=0;resizeLast=0;collapsible=1;marginBottom=0;whiteSpace=wrap;html=1;" vertex="1" parent="1">
          <mxGeometry x="-190" y="-870" width="140" height="104" as="geometry">
            <mxRectangle x="350" y="350" width="90" height="30" as="alternateBounds" />
          </mxGeometry>
        </mxCell>
        <mxCell id="6X_0xpyrdX8jrI-PU6AP-66" value="name" style="text;strokeColor=none;fillColor=none;align=left;verticalAlign=top;spacingLeft=4;spacingRight=4;overflow=hidden;rotatable=0;points=[[0,0.5],[1,0.5]];portConstraint=eastwest;whiteSpace=wrap;html=1;" vertex="1" parent="6X_0xpyrdX8jrI-PU6AP-65">
          <mxGeometry y="26" width="140" height="26" as="geometry" />
        </mxCell>
        <mxCell id="6X_0xpyrdX8jrI-PU6AP-67" value="title" style="text;strokeColor=none;fillColor=none;align=left;verticalAlign=top;spacingLeft=4;spacingRight=4;overflow=hidden;rotatable=0;points=[[0,0.5],[1,0.5]];portConstraint=eastwest;whiteSpace=wrap;html=1;" vertex="1" parent="6X_0xpyrdX8jrI-PU6AP-65">
          <mxGeometry y="52" width="140" height="26" as="geometry" />
        </mxCell>
        <mxCell id="6X_0xpyrdX8jrI-PU6AP-68" value="location" style="text;strokeColor=none;fillColor=none;align=left;verticalAlign=top;spacingLeft=4;spacingRight=4;overflow=hidden;rotatable=0;points=[[0,0.5],[1,0.5]];portConstraint=eastwest;whiteSpace=wrap;html=1;" vertex="1" parent="6X_0xpyrdX8jrI-PU6AP-65">
          <mxGeometry y="78" width="140" height="26" as="geometry" />
        </mxCell>
        <mxCell id="6X_0xpyrdX8jrI-PU6AP-69" style="edgeStyle=orthogonalEdgeStyle;rounded=0;orthogonalLoop=1;jettySize=auto;html=1;entryX=0.5;entryY=0;entryDx=0;entryDy=0;endArrow=none;endFill=0;" edge="1" parent="1" source="6X_0xpyrdX8jrI-PU6AP-71" target="6X_0xpyrdX8jrI-PU6AP-56">
          <mxGeometry relative="1" as="geometry">
            <Array as="points">
              <mxPoint x="-650" />
              <mxPoint x="-480" />
            </Array>
          </mxGeometry>
        </mxCell>
        <mxCell id="6X_0xpyrdX8jrI-PU6AP-70" value="describes" style="edgeLabel;html=1;align=center;verticalAlign=middle;resizable=0;points=[];" connectable="0" vertex="1" parent="6X_0xpyrdX8jrI-PU6AP-69">
          <mxGeometry x="-0.3649" relative="1" as="geometry">
            <mxPoint x="-9" y="-50" as="offset" />
          </mxGeometry>
        </mxCell>
        <mxCell id="6X_0xpyrdX8jrI-PU6AP-71" value="CreditCompany" style="swimlane;fontStyle=0;childLayout=stackLayout;horizontal=1;startSize=26;fillColor=none;horizontalStack=0;resizeParent=1;resizeParentMax=0;resizeLast=0;collapsible=1;marginBottom=0;whiteSpace=wrap;html=1;" vertex="1" parent="1">
          <mxGeometry x="-720" y="-239" width="140" height="104" as="geometry">
            <mxRectangle x="350" y="350" width="90" height="30" as="alternateBounds" />
          </mxGeometry>
        </mxCell>
        <mxCell id="6X_0xpyrdX8jrI-PU6AP-72" value="name" style="text;strokeColor=none;fillColor=none;align=left;verticalAlign=top;spacingLeft=4;spacingRight=4;overflow=hidden;rotatable=0;points=[[0,0.5],[1,0.5]];portConstraint=eastwest;whiteSpace=wrap;html=1;" vertex="1" parent="6X_0xpyrdX8jrI-PU6AP-71">
          <mxGeometry y="26" width="140" height="26" as="geometry" />
        </mxCell>
        <mxCell id="6X_0xpyrdX8jrI-PU6AP-73" value="contract start" style="text;strokeColor=none;fillColor=none;align=left;verticalAlign=top;spacingLeft=4;spacingRight=4;overflow=hidden;rotatable=0;points=[[0,0.5],[1,0.5]];portConstraint=eastwest;whiteSpace=wrap;html=1;" vertex="1" parent="6X_0xpyrdX8jrI-PU6AP-71">
          <mxGeometry y="52" width="140" height="26" as="geometry" />
        </mxCell>
        <mxCell id="6X_0xpyrdX8jrI-PU6AP-74" value="contract end" style="text;strokeColor=none;fillColor=none;align=left;verticalAlign=top;spacingLeft=4;spacingRight=4;overflow=hidden;rotatable=0;points=[[0,0.5],[1,0.5]];portConstraint=eastwest;whiteSpace=wrap;html=1;" vertex="1" parent="6X_0xpyrdX8jrI-PU6AP-71">
          <mxGeometry y="78" width="140" height="26" as="geometry" />
        </mxCell>
        <mxCell id="6X_0xpyrdX8jrI-PU6AP-75" style="edgeStyle=orthogonalEdgeStyle;rounded=0;orthogonalLoop=1;jettySize=auto;html=1;endArrow=none;endFill=0;" edge="1" parent="1" source="6X_0xpyrdX8jrI-PU6AP-77" target="6X_0xpyrdX8jrI-PU6AP-42">
          <mxGeometry relative="1" as="geometry" />
        </mxCell>
        <mxCell id="6X_0xpyrdX8jrI-PU6AP-76" value="reviewed-by" style="edgeLabel;html=1;align=center;verticalAlign=middle;resizable=0;points=[];" connectable="0" vertex="1" parent="6X_0xpyrdX8jrI-PU6AP-75">
          <mxGeometry y="2" relative="1" as="geometry">
            <mxPoint as="offset" />
          </mxGeometry>
        </mxCell>
        <mxCell id="6X_0xpyrdX8jrI-PU6AP-77" value="InsurancePolicy" style="swimlane;fontStyle=0;childLayout=stackLayout;horizontal=1;startSize=26;fillColor=none;horizontalStack=0;resizeParent=1;resizeParentMax=0;resizeLast=0;collapsible=1;marginBottom=0;whiteSpace=wrap;html=1;" vertex="1" parent="1">
          <mxGeometry x="-550" y="-400" width="140" height="110" as="geometry">
            <mxRectangle x="350" y="350" width="90" height="30" as="alternateBounds" />
          </mxGeometry>
        </mxCell>
        <mxCell id="6X_0xpyrdX8jrI-PU6AP-78" value="number" style="text;strokeColor=none;fillColor=none;align=left;verticalAlign=top;spacingLeft=4;spacingRight=4;overflow=hidden;rotatable=0;points=[[0,0.5],[1,0.5]];portConstraint=eastwest;whiteSpace=wrap;html=1;" vertex="1" parent="6X_0xpyrdX8jrI-PU6AP-77">
          <mxGeometry y="26" width="140" height="26" as="geometry" />
        </mxCell>
        <mxCell id="6X_0xpyrdX8jrI-PU6AP-79" value="coverage" style="text;strokeColor=none;fillColor=none;align=left;verticalAlign=top;spacingLeft=4;spacingRight=4;overflow=hidden;rotatable=0;points=[[0,0.5],[1,0.5]];portConstraint=eastwest;whiteSpace=wrap;html=1;" vertex="1" parent="6X_0xpyrdX8jrI-PU6AP-77">
          <mxGeometry y="52" width="140" height="26" as="geometry" />
        </mxCell>
        <mxCell id="6X_0xpyrdX8jrI-PU6AP-80" value="date signed" style="text;strokeColor=none;fillColor=none;align=left;verticalAlign=top;spacingLeft=4;spacingRight=4;overflow=hidden;rotatable=0;points=[[0,0.5],[1,0.5]];portConstraint=eastwest;whiteSpace=wrap;html=1;" vertex="1" parent="6X_0xpyrdX8jrI-PU6AP-77">
          <mxGeometry y="78" width="140" height="32" as="geometry" />
        </mxCell>
        <mxCell id="6X_0xpyrdX8jrI-PU6AP-81" value="ContractDetails" style="swimlane;fontStyle=0;childLayout=stackLayout;horizontal=1;startSize=26;fillColor=none;horizontalStack=0;resizeParent=1;resizeParentMax=0;resizeLast=0;collapsible=1;marginBottom=0;whiteSpace=wrap;html=1;" vertex="1" parent="1">
          <mxGeometry x="-190" y="-370" width="140" height="142" as="geometry">
            <mxRectangle x="350" y="350" width="90" height="30" as="alternateBounds" />
          </mxGeometry>
        </mxCell>
        <mxCell id="6X_0xpyrdX8jrI-PU6AP-82" value="type" style="text;strokeColor=none;fillColor=none;align=left;verticalAlign=top;spacingLeft=4;spacingRight=4;overflow=hidden;rotatable=0;points=[[0,0.5],[1,0.5]];portConstraint=eastwest;whiteSpace=wrap;html=1;" vertex="1" parent="6X_0xpyrdX8jrI-PU6AP-81">
          <mxGeometry y="26" width="140" height="26" as="geometry" />
        </mxCell>
        <mxCell id="6X_0xpyrdX8jrI-PU6AP-83" value="date effective" style="text;strokeColor=none;fillColor=none;align=left;verticalAlign=top;spacingLeft=4;spacingRight=4;overflow=hidden;rotatable=0;points=[[0,0.5],[1,0.5]];portConstraint=eastwest;whiteSpace=wrap;html=1;" vertex="1" parent="6X_0xpyrdX8jrI-PU6AP-81">
          <mxGeometry y="52" width="140" height="26" as="geometry" />
        </mxCell>
        <mxCell id="6X_0xpyrdX8jrI-PU6AP-84" value="date expired" style="text;strokeColor=none;fillColor=none;align=left;verticalAlign=top;spacingLeft=4;spacingRight=4;overflow=hidden;rotatable=0;points=[[0,0.5],[1,0.5]];portConstraint=eastwest;whiteSpace=wrap;html=1;" vertex="1" parent="6X_0xpyrdX8jrI-PU6AP-81">
          <mxGeometry y="78" width="140" height="32" as="geometry" />
        </mxCell>
        <mxCell id="6X_0xpyrdX8jrI-PU6AP-85" value="signatory" style="text;strokeColor=none;fillColor=none;align=left;verticalAlign=top;spacingLeft=4;spacingRight=4;overflow=hidden;rotatable=0;points=[[0,0.5],[1,0.5]];portConstraint=eastwest;whiteSpace=wrap;html=1;" vertex="1" parent="6X_0xpyrdX8jrI-PU6AP-81">
          <mxGeometry y="110" width="140" height="32" as="geometry" />
        </mxCell>
        <mxCell id="6X_0xpyrdX8jrI-PU6AP-86" style="edgeStyle=orthogonalEdgeStyle;rounded=0;orthogonalLoop=1;jettySize=auto;html=1;entryX=1;entryY=0.5;entryDx=0;entryDy=0;endArrow=none;endFill=0;exitX=-0.006;exitY=0.9;exitDx=0;exitDy=0;exitPerimeter=0;startArrow=none;startFill=0;" edge="1" parent="1" source="6X_0xpyrdX8jrI-PU6AP-6" target="6X_0xpyrdX8jrI-PU6AP-10">
          <mxGeometry relative="1" as="geometry">
            <mxPoint x="-490" y="-795" as="sourcePoint" />
          </mxGeometry>
        </mxCell>
        <mxCell id="6X_0xpyrdX8jrI-PU6AP-87" value="describes" style="edgeLabel;html=1;align=center;verticalAlign=middle;resizable=0;points=[];" connectable="0" vertex="1" parent="6X_0xpyrdX8jrI-PU6AP-86">
          <mxGeometry x="0.0875" y="1" relative="1" as="geometry">
            <mxPoint x="18" y="-1" as="offset" />
          </mxGeometry>
        </mxCell>
        <mxCell id="6X_0xpyrdX8jrI-PU6AP-88" value="1" style="text;html=1;align=center;verticalAlign=middle;resizable=0;points=[];autosize=1;strokeColor=none;fillColor=none;" vertex="1" parent="1">
          <mxGeometry x="-650" y="-822" width="30" height="30" as="geometry" />
        </mxCell>
        <mxCell id="6X_0xpyrdX8jrI-PU6AP-89" value="*" style="text;html=1;align=center;verticalAlign=middle;resizable=0;points=[];autosize=1;strokeColor=none;fillColor=none;" vertex="1" parent="1">
          <mxGeometry x="-505" y="-820" width="30" height="30" as="geometry" />
        </mxCell>
        <mxCell id="6X_0xpyrdX8jrI-PU6AP-90" value="*" style="text;html=1;align=center;verticalAlign=middle;resizable=0;points=[];autosize=1;strokeColor=none;fillColor=none;" vertex="1" parent="1">
          <mxGeometry x="-420" y="-766" width="30" height="30" as="geometry" />
        </mxCell>
        <mxCell id="6X_0xpyrdX8jrI-PU6AP-91" value="1...*" style="text;html=1;align=center;verticalAlign=middle;resizable=0;points=[];autosize=1;strokeColor=none;fillColor=none;" vertex="1" parent="1">
          <mxGeometry x="-420" y="-661" width="40" height="30" as="geometry" />
        </mxCell>
        <mxCell id="6X_0xpyrdX8jrI-PU6AP-92" value="contains" style="edgeStyle=orthogonalEdgeStyle;rounded=0;orthogonalLoop=1;jettySize=auto;html=1;entryX=1;entryY=0.5;entryDx=0;entryDy=0;endArrow=classicThin;endFill=1;startArrow=classicThin;startFill=1;" edge="1" parent="1">
          <mxGeometry relative="1" as="geometry">
            <mxPoint x="-490" y="-605" as="sourcePoint" />
            <mxPoint x="-770" y="-605" as="targetPoint" />
          </mxGeometry>
        </mxCell>
        <mxCell id="6X_0xpyrdX8jrI-PU6AP-93" value="1" style="text;html=1;align=center;verticalAlign=middle;resizable=0;points=[];autosize=1;strokeColor=none;fillColor=none;" vertex="1" parent="1">
          <mxGeometry x="-770" y="-630" width="30" height="30" as="geometry" />
        </mxCell>
        <mxCell id="6X_0xpyrdX8jrI-PU6AP-94" value="*" style="text;html=1;align=center;verticalAlign=middle;resizable=0;points=[];autosize=1;strokeColor=none;fillColor=none;" vertex="1" parent="1">
          <mxGeometry x="-520" y="-630" width="30" height="30" as="geometry" />
        </mxCell>
        <mxCell id="6X_0xpyrdX8jrI-PU6AP-95" value="1" style="text;html=1;align=center;verticalAlign=middle;resizable=0;points=[];autosize=1;strokeColor=none;fillColor=none;" vertex="1" parent="1">
          <mxGeometry x="-840" y="-428.92" width="30" height="30" as="geometry" />
        </mxCell>
        <mxCell id="6X_0xpyrdX8jrI-PU6AP-96" value="*" style="text;html=1;align=center;verticalAlign=middle;resizable=0;points=[];autosize=1;strokeColor=none;fillColor=none;" vertex="1" parent="1">
          <mxGeometry x="-840" y="-527" width="30" height="30" as="geometry" />
        </mxCell>
        <mxCell id="6X_0xpyrdX8jrI-PU6AP-97" value="has" style="edgeStyle=orthogonalEdgeStyle;rounded=0;orthogonalLoop=1;jettySize=auto;html=1;entryX=1;entryY=0.5;entryDx=0;entryDy=0;endArrow=none;endFill=0;startArrow=classicThin;startFill=1;" edge="1" parent="1">
          <mxGeometry relative="1" as="geometry">
            <mxPoint x="-190" y="-601" as="sourcePoint" />
            <mxPoint x="-350" y="-601" as="targetPoint" />
          </mxGeometry>
        </mxCell>
        <mxCell id="6X_0xpyrdX8jrI-PU6AP-98" value="1" style="text;html=1;align=center;verticalAlign=middle;resizable=0;points=[];autosize=1;strokeColor=none;fillColor=none;" vertex="1" parent="1">
          <mxGeometry x="-220" y="-630" width="30" height="30" as="geometry" />
        </mxCell>
        <mxCell id="6X_0xpyrdX8jrI-PU6AP-99" value="1...*" style="text;html=1;align=center;verticalAlign=middle;resizable=0;points=[];autosize=1;strokeColor=none;fillColor=none;" vertex="1" parent="1">
          <mxGeometry x="-350" y="-630" width="40" height="30" as="geometry" />
        </mxCell>
        <mxCell id="6X_0xpyrdX8jrI-PU6AP-100" style="edgeStyle=orthogonalEdgeStyle;rounded=0;orthogonalLoop=1;jettySize=auto;html=1;endArrow=none;endFill=0;" edge="1" parent="1" source="6X_0xpyrdX8jrI-PU6AP-102" target="6X_0xpyrdX8jrI-PU6AP-71">
          <mxGeometry relative="1" as="geometry" />
        </mxCell>
        <mxCell id="6X_0xpyrdX8jrI-PU6AP-101" value="generated-by" style="edgeLabel;html=1;align=center;verticalAlign=middle;resizable=0;points=[];" connectable="0" vertex="1" parent="6X_0xpyrdX8jrI-PU6AP-100">
          <mxGeometry x="0.1111" y="-3" relative="1" as="geometry">
            <mxPoint x="3" as="offset" />
          </mxGeometry>
        </mxCell>
        <mxCell id="6X_0xpyrdX8jrI-PU6AP-102" value="CreditReport" style="swimlane;fontStyle=0;childLayout=stackLayout;horizontal=1;startSize=26;fillColor=none;horizontalStack=0;resizeParent=1;resizeParentMax=0;resizeLast=0;collapsible=1;marginBottom=0;whiteSpace=wrap;html=1;" vertex="1" parent="1">
          <mxGeometry x="-720" y="-469" width="140" height="110" as="geometry">
            <mxRectangle x="350" y="350" width="90" height="30" as="alternateBounds" />
          </mxGeometry>
        </mxCell>
        <mxCell id="6X_0xpyrdX8jrI-PU6AP-103" value="number" style="text;strokeColor=none;fillColor=none;align=left;verticalAlign=top;spacingLeft=4;spacingRight=4;overflow=hidden;rotatable=0;points=[[0,0.5],[1,0.5]];portConstraint=eastwest;whiteSpace=wrap;html=1;" vertex="1" parent="6X_0xpyrdX8jrI-PU6AP-102">
          <mxGeometry y="26" width="140" height="26" as="geometry" />
        </mxCell>
        <mxCell id="6X_0xpyrdX8jrI-PU6AP-104" value="score" style="text;strokeColor=none;fillColor=none;align=left;verticalAlign=top;spacingLeft=4;spacingRight=4;overflow=hidden;rotatable=0;points=[[0,0.5],[1,0.5]];portConstraint=eastwest;whiteSpace=wrap;html=1;" vertex="1" parent="6X_0xpyrdX8jrI-PU6AP-102">
          <mxGeometry y="52" width="140" height="26" as="geometry" />
        </mxCell>
        <mxCell id="6X_0xpyrdX8jrI-PU6AP-105" value="history" style="text;strokeColor=none;fillColor=none;align=left;verticalAlign=top;spacingLeft=4;spacingRight=4;overflow=hidden;rotatable=0;points=[[0,0.5],[1,0.5]];portConstraint=eastwest;whiteSpace=wrap;html=1;" vertex="1" parent="6X_0xpyrdX8jrI-PU6AP-102">
          <mxGeometry y="78" width="140" height="32" as="geometry" />
        </mxCell>
        <mxCell id="6X_0xpyrdX8jrI-PU6AP-106" value="1" style="text;html=1;align=center;verticalAlign=middle;resizable=0;points=[];autosize=1;strokeColor=none;fillColor=none;" vertex="1" parent="1">
          <mxGeometry x="-475" y="-529" width="30" height="30" as="geometry" />
        </mxCell>
        <mxCell id="6X_0xpyrdX8jrI-PU6AP-107" value="1" style="text;html=1;align=center;verticalAlign=middle;resizable=0;points=[];autosize=1;strokeColor=none;fillColor=none;" vertex="1" parent="1">
          <mxGeometry x="-680" y="-497" width="30" height="30" as="geometry" />
        </mxCell>
        <mxCell id="6X_0xpyrdX8jrI-PU6AP-108" value="1" style="text;html=1;align=center;verticalAlign=middle;resizable=0;points=[];autosize=1;strokeColor=none;fillColor=none;" vertex="1" parent="1">
          <mxGeometry x="-120" y="-660" width="30" height="30" as="geometry" />
        </mxCell>
        <mxCell id="6X_0xpyrdX8jrI-PU6AP-109" value="1" style="text;html=1;align=center;verticalAlign=middle;resizable=0;points=[];autosize=1;strokeColor=none;fillColor=none;" vertex="1" parent="1">
          <mxGeometry x="-650" y="-359" width="30" height="30" as="geometry" />
        </mxCell>
        <mxCell id="6X_0xpyrdX8jrI-PU6AP-110" value="1...*" style="text;html=1;align=center;verticalAlign=middle;resizable=0;points=[];autosize=1;strokeColor=none;fillColor=none;" vertex="1" parent="1">
          <mxGeometry x="-650" y="-269" width="40" height="30" as="geometry" />
        </mxCell>
        <mxCell id="6X_0xpyrdX8jrI-PU6AP-111" value="1" style="text;html=1;align=center;verticalAlign=middle;resizable=0;points=[];autosize=1;strokeColor=none;fillColor=none;" vertex="1" parent="1">
          <mxGeometry x="-360" y="-527" width="30" height="30" as="geometry" />
        </mxCell>
        <mxCell id="6X_0xpyrdX8jrI-PU6AP-112" value="1" style="text;html=1;align=center;verticalAlign=middle;resizable=0;points=[];autosize=1;strokeColor=none;fillColor=none;" vertex="1" parent="1">
          <mxGeometry x="-320" y="-450" width="30" height="30" as="geometry" />
        </mxCell>
        <mxCell id="6X_0xpyrdX8jrI-PU6AP-113" style="edgeStyle=orthogonalEdgeStyle;rounded=0;orthogonalLoop=1;jettySize=auto;html=1;entryX=0.5;entryY=0;entryDx=0;entryDy=0;endArrow=none;endFill=0;" edge="1" parent="1" source="6X_0xpyrdX8jrI-PU6AP-115" target="6X_0xpyrdX8jrI-PU6AP-56">
          <mxGeometry relative="1" as="geometry">
            <Array as="points">
              <mxPoint x="-320" />
              <mxPoint x="-480" />
            </Array>
          </mxGeometry>
        </mxCell>
        <mxCell id="6X_0xpyrdX8jrI-PU6AP-114" value="describes" style="edgeLabel;html=1;align=center;verticalAlign=middle;resizable=0;points=[];" connectable="0" vertex="1" parent="6X_0xpyrdX8jrI-PU6AP-113">
          <mxGeometry x="-0.3765" y="-1" relative="1" as="geometry">
            <mxPoint x="31" y="-29" as="offset" />
          </mxGeometry>
        </mxCell>
        <mxCell id="6X_0xpyrdX8jrI-PU6AP-115" value="PaymentCompany" style="swimlane;fontStyle=0;childLayout=stackLayout;horizontal=1;startSize=26;fillColor=none;horizontalStack=0;resizeParent=1;resizeParentMax=0;resizeLast=0;collapsible=1;marginBottom=0;whiteSpace=wrap;html=1;" vertex="1" parent="1">
          <mxGeometry x="-390" y="-200" width="140" height="104" as="geometry">
            <mxRectangle x="350" y="350" width="90" height="30" as="alternateBounds" />
          </mxGeometry>
        </mxCell>
        <mxCell id="6X_0xpyrdX8jrI-PU6AP-116" value="name" style="text;strokeColor=none;fillColor=none;align=left;verticalAlign=top;spacingLeft=4;spacingRight=4;overflow=hidden;rotatable=0;points=[[0,0.5],[1,0.5]];portConstraint=eastwest;whiteSpace=wrap;html=1;" vertex="1" parent="6X_0xpyrdX8jrI-PU6AP-115">
          <mxGeometry y="26" width="140" height="26" as="geometry" />
        </mxCell>
        <mxCell id="6X_0xpyrdX8jrI-PU6AP-117" value="contract start" style="text;strokeColor=none;fillColor=none;align=left;verticalAlign=top;spacingLeft=4;spacingRight=4;overflow=hidden;rotatable=0;points=[[0,0.5],[1,0.5]];portConstraint=eastwest;whiteSpace=wrap;html=1;" vertex="1" parent="6X_0xpyrdX8jrI-PU6AP-115">
          <mxGeometry y="52" width="140" height="26" as="geometry" />
        </mxCell>
        <mxCell id="6X_0xpyrdX8jrI-PU6AP-118" value="contract end" style="text;strokeColor=none;fillColor=none;align=left;verticalAlign=top;spacingLeft=4;spacingRight=4;overflow=hidden;rotatable=0;points=[[0,0.5],[1,0.5]];portConstraint=eastwest;whiteSpace=wrap;html=1;" vertex="1" parent="6X_0xpyrdX8jrI-PU6AP-115">
          <mxGeometry y="78" width="140" height="26" as="geometry" />
        </mxCell>
        <mxCell id="6X_0xpyrdX8jrI-PU6AP-119" value="1" style="text;html=1;align=center;verticalAlign=middle;resizable=0;points=[];autosize=1;strokeColor=none;fillColor=none;" vertex="1" parent="1">
          <mxGeometry x="-320" y="-318" width="30" height="30" as="geometry" />
        </mxCell>
        <mxCell id="6X_0xpyrdX8jrI-PU6AP-120" value="1...*" style="text;html=1;align=center;verticalAlign=middle;resizable=0;points=[];autosize=1;strokeColor=none;fillColor=none;" vertex="1" parent="1">
          <mxGeometry x="-320" y="-230" width="40" height="30" as="geometry" />
        </mxCell>
        <mxCell id="6X_0xpyrdX8jrI-PU6AP-121" value="1...*" style="text;html=1;align=center;verticalAlign=middle;resizable=0;points=[];autosize=1;strokeColor=none;fillColor=none;" vertex="1" parent="1">
          <mxGeometry x="-125" y="-766" width="40" height="30" as="geometry" />
        </mxCell>
        <mxCell id="6X_0xpyrdX8jrI-PU6AP-122" value="1" style="text;html=1;align=center;verticalAlign=middle;resizable=0;points=[];autosize=1;strokeColor=none;fillColor=none;" vertex="1" parent="1">
          <mxGeometry x="-120" y="-400" width="30" height="30" as="geometry" />
        </mxCell>
        <mxCell id="6X_0xpyrdX8jrI-PU6AP-123" value="*" style="text;html=1;align=center;verticalAlign=middle;resizable=0;points=[];autosize=1;strokeColor=none;fillColor=none;" vertex="1" parent="1">
          <mxGeometry x="-120" y="-527" width="30" height="30" as="geometry" />
        </mxCell>
        <mxCell id="6X_0xpyrdX8jrI-PU6AP-124" value="1..*" style="text;html=1;align=center;verticalAlign=middle;resizable=0;points=[];autosize=1;strokeColor=none;fillColor=none;" vertex="1" parent="1">
          <mxGeometry x="-425" y="-529" width="40" height="30" as="geometry" />
        </mxCell>
        <mxCell id="6X_0xpyrdX8jrI-PU6AP-125" value="1" style="text;html=1;align=center;verticalAlign=middle;resizable=0;points=[];autosize=1;strokeColor=none;fillColor=none;" vertex="1" parent="1">
          <mxGeometry x="-510" y="-430" width="30" height="30" as="geometry" />
        </mxCell>
        <mxCell id="6X_0xpyrdX8jrI-PU6AP-126" value="1" style="text;html=1;align=center;verticalAlign=middle;resizable=0;points=[];autosize=1;strokeColor=none;fillColor=none;" vertex="1" parent="1">
          <mxGeometry x="-480" y="-288" width="30" height="30" as="geometry" />
        </mxCell>
        <mxCell id="6X_0xpyrdX8jrI-PU6AP-127" value="1...*" style="text;html=1;align=center;verticalAlign=middle;resizable=0;points=[];autosize=1;strokeColor=none;fillColor=none;" vertex="1" parent="1">
          <mxGeometry x="-480" y="-217" width="40" height="30" as="geometry" />
        </mxCell>
        <mxCell id="6X_0xpyrdX8jrI-PU6AP-128" style="edgeStyle=orthogonalEdgeStyle;rounded=0;orthogonalLoop=1;jettySize=auto;html=1;entryX=0;entryY=0.5;entryDx=0;entryDy=0;endArrow=block;endFill=0;startArrow=none;startFill=0;endSize=12;" edge="1" parent="1" source="6X_0xpyrdX8jrI-PU6AP-130" target="6X_0xpyrdX8jrI-PU6AP-48">
          <mxGeometry relative="1" as="geometry">
            <Array as="points">
              <mxPoint x="-470" y="-985" />
              <mxPoint x="-470" y="-985" />
            </Array>
          </mxGeometry>
        </mxCell>
        <mxCell id="6X_0xpyrdX8jrI-PU6AP-129" value="inherits-from" style="edgeLabel;html=1;align=center;verticalAlign=middle;resizable=0;points=[];" connectable="0" vertex="1" parent="6X_0xpyrdX8jrI-PU6AP-128">
          <mxGeometry x="-0.3333" y="-1" relative="1" as="geometry">
            <mxPoint x="32" y="-1" as="offset" />
          </mxGeometry>
        </mxCell>
        <mxCell id="6X_0xpyrdX8jrI-PU6AP-130" value="CustomerCareRep" style="swimlane;fontStyle=0;childLayout=stackLayout;horizontal=1;startSize=26;fillColor=none;horizontalStack=0;resizeParent=1;resizeParentMax=0;resizeLast=0;collapsible=1;marginBottom=0;whiteSpace=wrap;html=1;" vertex="1" parent="1">
          <mxGeometry x="-680" y="-1042" width="140" height="104" as="geometry">
            <mxRectangle x="350" y="350" width="90" height="30" as="alternateBounds" />
          </mxGeometry>
        </mxCell>
        <mxCell id="6X_0xpyrdX8jrI-PU6AP-131" value="name" style="text;strokeColor=none;fillColor=none;align=left;verticalAlign=top;spacingLeft=4;spacingRight=4;overflow=hidden;rotatable=0;points=[[0,0.5],[1,0.5]];portConstraint=eastwest;whiteSpace=wrap;html=1;" vertex="1" parent="6X_0xpyrdX8jrI-PU6AP-130">
          <mxGeometry y="26" width="140" height="26" as="geometry" />
        </mxCell>
        <mxCell id="6X_0xpyrdX8jrI-PU6AP-132" value="title" style="text;strokeColor=none;fillColor=none;align=left;verticalAlign=top;spacingLeft=4;spacingRight=4;overflow=hidden;rotatable=0;points=[[0,0.5],[1,0.5]];portConstraint=eastwest;whiteSpace=wrap;html=1;" vertex="1" parent="6X_0xpyrdX8jrI-PU6AP-130">
          <mxGeometry y="52" width="140" height="26" as="geometry" />
        </mxCell>
        <mxCell id="6X_0xpyrdX8jrI-PU6AP-133" value="location" style="text;strokeColor=none;fillColor=none;align=left;verticalAlign=top;spacingLeft=4;spacingRight=4;overflow=hidden;rotatable=0;points=[[0,0.5],[1,0.5]];portConstraint=eastwest;whiteSpace=wrap;html=1;" vertex="1" parent="6X_0xpyrdX8jrI-PU6AP-130">
          <mxGeometry y="78" width="140" height="26" as="geometry" />
        </mxCell>
        <mxCell id="6X_0xpyrdX8jrI-PU6AP-134" value="1" style="text;html=1;align=center;verticalAlign=middle;resizable=0;points=[];autosize=1;strokeColor=none;fillColor=none;" vertex="1" parent="1">
          <mxGeometry x="-610" y="-938" width="30" height="30" as="geometry" />
        </mxCell>
        <mxCell id="6X_0xpyrdX8jrI-PU6AP-135" value="1" style="text;html=1;align=center;verticalAlign=middle;resizable=0;points=[];autosize=1;strokeColor=none;fillColor=none;" vertex="1" parent="1">
          <mxGeometry x="-505" y="-890" width="30" height="30" as="geometry" />
        </mxCell>
        <mxCell id="6X_0xpyrdX8jrI-PU6AP-136" value="1" style="text;html=1;align=center;verticalAlign=middle;resizable=0;points=[];autosize=1;strokeColor=none;fillColor=none;" vertex="1" parent="1">
          <mxGeometry x="-220" y="-860" width="30" height="30" as="geometry" />
        </mxCell>
        <mxCell id="6X_0xpyrdX8jrI-PU6AP-137" value="1" style="text;html=1;align=center;verticalAlign=middle;resizable=0;points=[];autosize=1;strokeColor=none;fillColor=none;" vertex="1" parent="1">
          <mxGeometry x="-540" y="-1020" width="30" height="30" as="geometry" />
        </mxCell>
        <mxCell id="6X_0xpyrdX8jrI-PU6AP-138" value="1" style="text;html=1;align=center;verticalAlign=middle;resizable=0;points=[];autosize=1;strokeColor=none;fillColor=none;" vertex="1" parent="1">
          <mxGeometry x="-370" y="-1020" width="30" height="30" as="geometry" />
        </mxCell>
        <mxCell id="6X_0xpyrdX8jrI-PU6AP-139" value="1" style="text;html=1;align=center;verticalAlign=middle;resizable=0;points=[];autosize=1;strokeColor=none;fillColor=none;" vertex="1" parent="1">
          <mxGeometry x="-650" y="-135" width="30" height="30" as="geometry" />
        </mxCell>
        <mxCell id="6X_0xpyrdX8jrI-PU6AP-140" value="1" style="text;html=1;align=center;verticalAlign=middle;resizable=0;points=[];autosize=1;strokeColor=none;fillColor=none;" vertex="1" parent="1">
          <mxGeometry x="-480" y="-80" width="30" height="30" as="geometry" />
        </mxCell>
        <mxCell id="6X_0xpyrdX8jrI-PU6AP-141" value="1" style="text;html=1;align=center;verticalAlign=middle;resizable=0;points=[];autosize=1;strokeColor=none;fillColor=none;" vertex="1" parent="1">
          <mxGeometry x="-320" y="-96" width="30" height="30" as="geometry" />
        </mxCell>
        <mxCell id="6X_0xpyrdX8jrI-PU6AP-142" value="1" style="text;html=1;align=center;verticalAlign=middle;resizable=0;points=[];autosize=1;strokeColor=none;fillColor=none;" vertex="1" parent="1">
          <mxGeometry x="-475" y="30" width="30" height="30" as="geometry" />
        </mxCell>
        <mxCell id="6X_0xpyrdX8jrI-PU6AP-143" value="DMV" style="swimlane;fontStyle=0;childLayout=stackLayout;horizontal=1;startSize=26;fillColor=none;horizontalStack=0;resizeParent=1;resizeParentMax=0;resizeLast=0;collapsible=1;marginBottom=0;whiteSpace=wrap;html=1;" vertex="1" parent="1">
          <mxGeometry x="-970" y="-780" width="140" height="108" as="geometry">
            <mxRectangle x="350" y="350" width="90" height="30" as="alternateBounds" />
          </mxGeometry>
        </mxCell>
        <mxCell id="6X_0xpyrdX8jrI-PU6AP-144" value="name" style="text;strokeColor=none;fillColor=none;align=left;verticalAlign=top;spacingLeft=4;spacingRight=4;overflow=hidden;rotatable=0;points=[[0,0.5],[1,0.5]];portConstraint=eastwest;whiteSpace=wrap;html=1;" vertex="1" parent="6X_0xpyrdX8jrI-PU6AP-143">
          <mxGeometry y="26" width="140" height="26" as="geometry" />
        </mxCell>
        <mxCell id="6X_0xpyrdX8jrI-PU6AP-145" value="address" style="text;strokeColor=none;fillColor=none;align=left;verticalAlign=top;spacingLeft=4;spacingRight=4;overflow=hidden;rotatable=0;points=[[0,0.5],[1,0.5]];portConstraint=eastwest;whiteSpace=wrap;html=1;" vertex="1" parent="6X_0xpyrdX8jrI-PU6AP-143">
          <mxGeometry y="52" width="140" height="26" as="geometry" />
        </mxCell>
        <mxCell id="6X_0xpyrdX8jrI-PU6AP-146" value="phone number" style="text;strokeColor=none;fillColor=none;align=left;verticalAlign=top;spacingLeft=4;spacingRight=4;overflow=hidden;rotatable=0;points=[[0,0.5],[1,0.5]];portConstraint=eastwest;whiteSpace=wrap;html=1;" vertex="1" parent="6X_0xpyrdX8jrI-PU6AP-143">
          <mxGeometry y="78" width="140" height="30" as="geometry" />
        </mxCell>
        <mxCell id="6X_0xpyrdX8jrI-PU6AP-147" style="edgeStyle=orthogonalEdgeStyle;rounded=0;orthogonalLoop=1;jettySize=auto;html=1;exitX=1;exitY=0.5;exitDx=0;exitDy=0;endArrow=classicThin;endFill=1;entryX=0.102;entryY=0.996;entryDx=0;entryDy=0;entryPerimeter=0;" edge="1" parent="1" target="6X_0xpyrdX8jrI-PU6AP-7">
          <mxGeometry relative="1" as="geometry">
            <mxPoint x="-830" y="-686" as="sourcePoint" />
            <Array as="points">
              <mxPoint x="-466" y="-686" />
            </Array>
            <mxPoint x="-465" y="-760" as="targetPoint" />
          </mxGeometry>
        </mxCell>
        <mxCell id="6X_0xpyrdX8jrI-PU6AP-148" value="validates-license" style="edgeLabel;html=1;align=center;verticalAlign=middle;resizable=0;points=[];" connectable="0" vertex="1" parent="6X_0xpyrdX8jrI-PU6AP-147">
          <mxGeometry x="0.0828" y="2" relative="1" as="geometry">
            <mxPoint as="offset" />
          </mxGeometry>
        </mxCell>
      </root>
    </mxGraphModel>
  </diagram>
</mxfile>
